<?xml version="1.0" encoding="utf-8"?>
<!-- Generator: Adobe Illustrator 26.0.1, SVG Export Plug-In . SVG Version: 6.00 Build 0)  -->
<svg version="1.1" id="Ebene_1" xmlns="http://www.w3.org/2000/svg" xmlns:xlink="http://www.w3.org/1999/xlink" x="0px" y="0px"
	 viewBox="0 0 841.89 595.28" style="enable-background:new 0 0 841.89 595.28;" xml:space="preserve">
<style type="text/css">
	.st0{fill:#D9918A;}
	.st1{fill:#D8E2DE;}
</style>
<g>
	<path class="st0" d="M232.74,394.85c1.27,0,2.19-0.21,2.77-0.64c0.58-0.43,0.87-1.03,0.87-1.82c0-0.47-0.1-0.87-0.29-1.2
		c-0.2-0.34-0.48-0.64-0.84-0.91c-0.36-0.27-0.81-0.52-1.33-0.76c-0.52-0.23-1.12-0.46-1.79-0.69c-0.67-0.24-1.32-0.51-1.94-0.8
		c-0.62-0.29-1.17-0.65-1.65-1.08c-0.48-0.43-0.86-0.94-1.15-1.54s-0.43-1.31-0.43-2.15c0-1.75,0.61-3.13,1.82-4.12
		c1.21-1,2.86-1.5,4.95-1.5c1.21,0,2.29,0.14,3.23,0.41c0.94,0.27,1.68,0.56,2.22,0.88l-1.09,2.85c-0.63-0.35-1.33-0.62-2.08-0.81
		c-0.76-0.19-1.53-0.28-2.34-0.28c-0.95,0-1.69,0.2-2.22,0.59c-0.53,0.39-0.8,0.94-0.8,1.65c0,0.43,0.09,0.8,0.27,1.1
		c0.18,0.31,0.43,0.58,0.76,0.83c0.33,0.24,0.71,0.47,1.15,0.67c0.44,0.2,0.92,0.4,1.44,0.59c0.91,0.34,1.73,0.68,2.45,1.02
		c0.72,0.34,1.32,0.76,1.82,1.23c0.49,0.48,0.87,1.03,1.13,1.68c0.26,0.64,0.39,1.42,0.39,2.34c0,1.75-0.62,3.11-1.86,4.07
		c-1.24,0.96-3.05,1.44-5.44,1.44c-0.8,0-1.53-0.05-2.2-0.15c-0.66-0.1-1.25-0.23-1.76-0.38c-0.51-0.15-0.96-0.3-1.33-0.46
		c-0.37-0.16-0.67-0.3-0.89-0.43l1.03-2.88c0.5,0.28,1.18,0.56,2.04,0.84C230.5,394.71,231.53,394.85,232.74,394.85"/>
	<path class="st0" d="M259.45,387.77c0,1.06,0.13,2.03,0.39,2.9c0.26,0.87,0.64,1.6,1.13,2.21c0.49,0.61,1.09,1.08,1.8,1.41
		c0.71,0.34,1.51,0.5,2.41,0.5c0.88,0,1.67-0.17,2.38-0.5c0.71-0.34,1.31-0.81,1.8-1.41c0.49-0.61,0.87-1.34,1.13-2.21
		c0.26-0.87,0.39-1.83,0.39-2.9c0-1.06-0.13-2.03-0.39-2.89c-0.26-0.87-0.64-1.6-1.13-2.21c-0.49-0.61-1.1-1.08-1.8-1.41
		c-0.71-0.34-1.5-0.5-2.38-0.5c-0.89,0-1.7,0.17-2.41,0.5c-0.71,0.34-1.31,0.81-1.8,1.43c-0.49,0.62-0.87,1.35-1.13,2.21
		C259.58,385.75,259.45,386.71,259.45,387.77 M274.58,387.77c0,1.66-0.25,3.12-0.74,4.39c-0.49,1.27-1.17,2.33-2.01,3.17
		c-0.85,0.85-1.84,1.49-2.98,1.92c-1.14,0.43-2.35,0.64-3.64,0.64c-1.29,0-2.5-0.21-3.65-0.64c-1.15-0.43-2.14-1.07-2.99-1.92
		c-0.85-0.85-1.52-1.91-2.03-3.17c-0.5-1.27-0.76-2.73-0.76-4.39c0-1.66,0.25-3.12,0.76-4.38c0.5-1.26,1.19-2.32,2.06-3.17
		c0.87-0.86,1.87-1.5,3.01-1.93c1.14-0.43,2.34-0.64,3.61-0.64c1.27,0,2.47,0.21,3.61,0.64c1.14,0.43,2.13,1.07,2.98,1.93
		s1.52,1.92,2.03,3.17C274.33,384.66,274.58,386.11,274.58,387.77"/>
	<path class="st0" d="M299.33,397.9c-1.32,0-2.46-0.19-3.41-0.57c-0.95-0.38-1.74-0.92-2.36-1.61s-1.09-1.5-1.38-2.43
		c-0.3-0.93-0.45-1.96-0.45-3.08V378.1h3.55v11.77c0,0.88,0.1,1.63,0.29,2.25c0.2,0.63,0.48,1.13,0.84,1.52
		c0.36,0.39,0.79,0.68,1.29,0.87c0.49,0.19,1.05,0.28,1.66,0.28c0.62,0,1.17-0.09,1.68-0.28c0.5-0.19,0.94-0.48,1.3-0.87
		c0.36-0.39,0.64-0.9,0.84-1.52c0.2-0.62,0.29-1.37,0.29-2.25V378.1h3.55v12.11c0,1.12-0.15,2.14-0.46,3.08s-0.77,1.74-1.4,2.43
		c-0.63,0.69-1.42,1.23-2.39,1.61C301.8,397.71,300.66,397.9,299.33,397.9"/>
	<path class="st0" d="M329.65,394.85c1.27,0,2.19-0.21,2.77-0.64c0.58-0.43,0.87-1.03,0.87-1.82c0-0.47-0.1-0.87-0.29-1.2
		c-0.2-0.34-0.48-0.64-0.84-0.91c-0.36-0.27-0.81-0.52-1.33-0.76c-0.52-0.23-1.12-0.46-1.79-0.69c-0.67-0.24-1.32-0.51-1.94-0.8
		c-0.62-0.29-1.17-0.65-1.65-1.08c-0.48-0.43-0.86-0.94-1.15-1.54c-0.29-0.6-0.43-1.31-0.43-2.15c0-1.75,0.61-3.13,1.82-4.12
		c1.21-1,2.86-1.5,4.95-1.5c1.21,0,2.29,0.14,3.23,0.41c0.94,0.27,1.68,0.56,2.22,0.88l-1.09,2.85c-0.63-0.35-1.33-0.62-2.08-0.81
		c-0.76-0.19-1.53-0.28-2.34-0.28c-0.95,0-1.69,0.2-2.22,0.59c-0.53,0.39-0.8,0.94-0.8,1.65c0,0.43,0.09,0.8,0.27,1.1
		c0.18,0.31,0.43,0.58,0.76,0.83c0.33,0.24,0.71,0.47,1.15,0.67c0.44,0.2,0.92,0.4,1.44,0.59c0.91,0.34,1.73,0.68,2.45,1.02
		c0.72,0.34,1.32,0.76,1.82,1.23c0.49,0.48,0.87,1.03,1.13,1.68c0.26,0.64,0.39,1.42,0.39,2.34c0,1.75-0.62,3.11-1.86,4.07
		c-1.24,0.96-3.05,1.44-5.44,1.44c-0.8,0-1.53-0.05-2.2-0.15c-0.66-0.1-1.25-0.23-1.76-0.38c-0.51-0.15-0.96-0.3-1.33-0.46
		c-0.37-0.16-0.67-0.3-0.89-0.43l1.03-2.88c0.5,0.28,1.18,0.56,2.04,0.84C327.4,394.71,328.44,394.85,329.65,394.85"/>
	<path class="st0" d="M378.96,397.48c-1.4-3.02-2.75-6.18-4.04-9.48c-1.3-3.3-2.5-6.6-3.62-9.9h3.89c0.45,1.31,0.91,2.64,1.37,4
		c0.47,1.36,0.93,2.7,1.4,4.01c0.47,1.31,0.93,2.59,1.4,3.82c0.47,1.23,0.93,2.36,1.37,3.38c0.43-1.03,0.88-2.15,1.35-3.37
		c0.47-1.22,0.94-2.49,1.42-3.82c0.48-1.32,0.95-2.67,1.42-4.03c0.47-1.36,0.92-2.69,1.35-4h3.78c-1.14,3.3-2.36,6.6-3.65,9.9
		c-1.29,3.3-2.64,6.46-4.04,9.48H378.96z"/>
	<rect x="405.94" y="378.1" class="st0" width="3.52" height="19.38"/>
	<path class="st0" d="M431.05,394.57c0.21,0.02,0.48,0.03,0.81,0.04c0.34,0.01,0.79,0.01,1.37,0.01c2.37,0,4.13-0.6,5.3-1.8
		c1.16-1.2,1.75-2.89,1.75-5.05c0-2.2-0.57-3.89-1.71-5.06c-1.14-1.17-2.9-1.76-5.29-1.76c-1.04,0-1.79,0.03-2.24,0.08V394.57z
		 M443.98,387.77c0,1.68-0.26,3.14-0.78,4.38c-0.52,1.24-1.26,2.27-2.22,3.1c-0.96,0.83-2.12,1.44-3.47,1.85
		c-1.35,0.4-2.85,0.6-4.49,0.6c-0.78,0-1.67-0.03-2.66-0.1c-0.99-0.07-1.93-0.2-2.83-0.41v-18.82c0.9-0.21,1.85-0.34,2.85-0.39
		c1.01-0.06,1.9-0.08,2.69-0.08c1.62,0,3.1,0.19,4.45,0.57c1.34,0.38,2.49,0.98,3.45,1.79c0.96,0.81,1.7,1.84,2.22,3.08
		C443.71,384.58,443.98,386.06,443.98,387.77"/>
	<polygon class="st0" points="461.26,397.48 461.26,378.1 473.7,378.1 473.7,381.09 464.78,381.09 464.78,385.87 472.73,385.87 
		472.73,388.81 464.78,388.81 464.78,394.49 474.38,394.49 474.38,397.48 	"/>
	<path class="st0" d="M519.63,397.9c-1.45,0-2.76-0.22-3.92-0.67c-1.16-0.45-2.14-1.1-2.94-1.97c-0.8-0.87-1.42-1.92-1.85-3.17
		c-0.43-1.25-0.64-2.69-0.64-4.31s0.25-3.06,0.74-4.31c0.49-1.25,1.17-2.31,2.03-3.17c0.86-0.87,1.86-1.52,3.02-1.97
		c1.16-0.45,2.4-0.67,3.72-0.67c0.8,0,1.53,0.06,2.18,0.18c0.65,0.12,1.22,0.26,1.71,0.41c0.48,0.15,0.89,0.31,1.2,0.48
		c0.32,0.17,0.54,0.29,0.67,0.36l-1.03,2.88c-0.45-0.28-1.09-0.55-1.92-0.8c-0.83-0.25-1.73-0.38-2.7-0.38
		c-0.84,0-1.62,0.15-2.35,0.43c-0.73,0.29-1.36,0.72-1.89,1.3c-0.53,0.58-0.95,1.31-1.24,2.18c-0.3,0.88-0.45,1.89-0.45,3.05
		c0,1.03,0.12,1.97,0.35,2.82c0.23,0.86,0.59,1.6,1.08,2.22c0.48,0.63,1.1,1.11,1.85,1.45c0.75,0.35,1.64,0.52,2.69,0.52
		c1.25,0,2.27-0.13,3.05-0.38c0.78-0.25,1.39-0.49,1.82-0.71l0.95,2.88c-0.22,0.15-0.53,0.3-0.91,0.45
		c-0.38,0.15-0.83,0.29-1.36,0.43c-0.52,0.14-1.11,0.25-1.76,0.34C521.07,397.86,520.37,397.9,519.63,397.9"/>
	<path class="st0" d="M549.75,397.9c-1.32,0-2.46-0.19-3.41-0.57c-0.95-0.38-1.74-0.92-2.36-1.61s-1.09-1.5-1.38-2.43
		c-0.3-0.93-0.45-1.96-0.45-3.08V378.1h3.55v11.77c0,0.88,0.1,1.63,0.29,2.25c0.2,0.63,0.48,1.13,0.84,1.52
		c0.36,0.39,0.79,0.68,1.29,0.87c0.49,0.19,1.05,0.28,1.66,0.28s1.17-0.09,1.68-0.28c0.5-0.19,0.94-0.48,1.3-0.87
		c0.36-0.39,0.64-0.9,0.84-1.52c0.2-0.62,0.29-1.37,0.29-2.25V378.1h3.55v12.11c0,1.12-0.15,2.14-0.46,3.08
		c-0.31,0.93-0.77,1.74-1.4,2.43c-0.63,0.69-1.42,1.23-2.39,1.61C552.22,397.71,551.07,397.9,549.75,397.9"/>
	<rect x="575.36" y="378.1" class="st0" width="3.52" height="19.38"/>
	<path class="st0" d="M601.65,394.85c1.27,0,2.19-0.21,2.77-0.64c0.58-0.43,0.87-1.03,0.87-1.82c0-0.47-0.1-0.87-0.29-1.2
		c-0.2-0.34-0.48-0.64-0.84-0.91c-0.36-0.27-0.81-0.52-1.33-0.76c-0.52-0.23-1.12-0.46-1.79-0.69c-0.67-0.24-1.32-0.51-1.94-0.8
		c-0.62-0.29-1.17-0.65-1.65-1.08s-0.86-0.94-1.15-1.54c-0.29-0.6-0.43-1.31-0.43-2.15c0-1.75,0.61-3.13,1.82-4.12
		c1.21-1,2.86-1.5,4.95-1.5c1.21,0,2.29,0.14,3.23,0.41c0.94,0.27,1.68,0.56,2.22,0.88l-1.09,2.85c-0.63-0.35-1.33-0.62-2.08-0.81
		c-0.76-0.19-1.53-0.28-2.34-0.28c-0.95,0-1.69,0.2-2.22,0.59c-0.53,0.39-0.8,0.94-0.8,1.65c0,0.43,0.09,0.8,0.27,1.1
		c0.18,0.31,0.43,0.58,0.76,0.83c0.33,0.24,0.71,0.47,1.15,0.67c0.44,0.2,0.92,0.4,1.44,0.59c0.91,0.34,1.73,0.68,2.45,1.02
		c0.72,0.34,1.32,0.76,1.82,1.23c0.49,0.48,0.87,1.03,1.13,1.68c0.26,0.64,0.39,1.42,0.39,2.34c0,1.75-0.62,3.11-1.86,4.07
		c-1.24,0.96-3.05,1.44-5.44,1.44c-0.8,0-1.53-0.05-2.2-0.15c-0.66-0.1-1.25-0.23-1.76-0.38c-0.51-0.15-0.96-0.3-1.33-0.46
		c-0.37-0.16-0.67-0.3-0.89-0.43l1.03-2.88c0.5,0.28,1.18,0.56,2.04,0.84C599.4,394.71,600.44,394.85,601.65,394.85"/>
	<rect x="625.48" y="378.1" class="st0" width="3.52" height="19.38"/>
	<path class="st0" d="M660.13,397.48c-0.63-1.06-1.34-2.2-2.13-3.43c-0.78-1.22-1.59-2.45-2.43-3.69c-0.84-1.24-1.69-2.44-2.56-3.61
		c-0.87-1.16-1.69-2.21-2.48-3.15v13.87h-3.47V378.1h2.88c0.75,0.78,1.55,1.71,2.41,2.78c0.86,1.07,1.72,2.19,2.59,3.34
		c0.87,1.16,1.71,2.32,2.52,3.48c0.81,1.17,1.53,2.25,2.17,3.26V378.1h3.5v19.38H660.13z"/>
	<polygon class="st0" points="681.19,397.48 681.19,378.1 693.63,378.1 693.63,381.09 684.71,381.09 684.71,385.87 692.66,385.87 
		692.66,388.81 684.71,388.81 684.71,394.49 694.31,394.49 694.31,397.48 	"/>
</g>
<g>
	<path class="st1" d="M139.2,409.65l1.47,2.7c15.2-2.7,33.35-8.58,45.12-20.6c11.04-11.04,15.2-24.53,15.2-39.73
		c0-9.32-0.74-35.07-0.74-50.28c0-16.19,0.49-36.3,0.49-49.05c0-11.53-1.96-13.98-4.17-13.98c-4.66,0-20.6,8.58-30.41,13.73
		c-7.11,3.68-18.15,8.83-24.28,11.28l0.74,2.7c0.74,0,1.96-0.24,3.19-0.24c3.68,0,7.11,1.96,9.07,7.11
		c2.21,5.15,3.44,16.68,3.44,33.35c0,18.15-0.49,48.07-3.44,66.46C151.96,391.01,145.83,403.03,139.2,409.65 M192.92,224.31
		c-11.99,12.49-38.36,7.86-38.36,7.86s-6.07-25.8,6.26-38.65c8.5-8.86,22.58-9.16,31.45-0.65
		C201.13,201.37,201.43,215.45,192.92,224.31"/>
	<path class="st1" d="M291.01,247.3c-8.79,1.21-18.39,25.02-18.39,48.56c0,30.9,12.81,58.25,24.52,59.35
		c7.56,0.22,17.66-25.02,17.66-49.29C314.8,274.52,301.67,247.18,291.01,247.3 M256.92,251.71c10.79-6.13,26.24-9.56,39.24-9.56
		c16.43,0,33.11,5.4,45.13,14.96c13.49,10.79,20.6,26,20.6,43.9c0,21.34-12.51,40.47-33.35,51.26c-8.58,4.66-21.33,8.58-33.6,8.58
		c-17.41,0-34.82-5.15-47.58-14.71c-13.49-10.3-21.58-25.02-21.58-43.41C225.78,280.41,237.79,262.26,256.92,251.71"/>
	<path class="st1" d="M372.68,355.7l0.24,2.7c4.91,0,22.56-0.74,34.83-0.74c11.04,0,30.9,0.74,38.5,0.74l0.25-2.7
		c-7.6-2.45-11.28-8.83-13.24-15.21c-2.7-7.36-3.43-17.66-3.43-30.66v-14.96c0-12.26,0.49-26.24,0.49-33.35
		c0-6.87-0.25-15.45-0.98-20.36c-0.24-1.47-1.72-2.45-2.94-2.45c-3.92,0-15.94,5.89-26.49,12.02c-8.83,4.66-20.36,9.81-28.2,13
		l0.74,2.7c0.98-0.24,2.21-0.24,3.43-0.24c3.19,0,6.38,1.72,8.34,5.88c2.94,5.4,3.92,19.13,3.92,36.3c0,16.68-1.23,29.92-4.91,37.77
		C381.02,351.04,376.85,353.98,372.68,355.7 M421.76,224.31c-11.99,12.49-38.36,7.86-38.36,7.86s-6.07-25.8,6.26-38.65
		c8.5-8.86,22.58-9.16,31.45-0.65C429.97,201.37,430.26,215.45,421.76,224.31"/>
	<path class="st1" d="M515.41,360.85c-16.43,0-30.41-4.41-41.2-14.23c-11.53-10.05-17.9-25.26-17.9-44.88
		c0-32.86,24.52-59.59,62.29-59.59c10.79,0,22.56,1.47,31.39,5.15c11.53,4.66,17.9,11.28,17.9,19.87c0,11.04-8.58,19.86-19.13,19.86
		c-10.06,0-14.71-5.89-20.11-21.34c-3.19-9.32-7.11-16.92-12.02-18.39c-9.81,6.38-13.98,25.75-13.98,49.78
		c0,13,3.19,23.54,9.32,30.9c5.64,6.87,13.98,10.79,24.03,10.79c13.49,0,24.53-7.11,32.86-17.41l2.94,1.96
		C563.23,339.51,544.35,360.85,515.41,360.85"/>
	<path class="st1" d="M631.41,290.46c9.32,0,21.83-0.74,28.69-1.47c-1.23-19.87-6.13-38.5-14.96-41.69
		C636.8,253.43,632.14,268.14,631.41,290.46 M665.25,339.02c13.73,0,24.77-7.11,33.84-17.17l2.7,1.96
		c-10.06,17.17-28.69,37.03-56.41,37.03c-14.71,0-27.71-3.43-38.5-11.28c-13.49-9.56-22.07-26.24-22.07-48.56
		c0-31.15,24.53-58.86,60.33-58.86c32.86,0,49.54,21.83,54.93,43.65c0.49,1.96,0.98,4.17,0.98,5.64c0,1.72-0.74,2.45-1.22,2.94
		l-68.67,1.47v2.45C631.16,325.04,645.14,339.02,665.25,339.02"/>
</g>
</svg>
